<svg id="Layer_1" data-name="Layer 1" xmlns="http://www.w3.org/2000/svg" viewBox="0 0 15.4 15.4"><defs><style>.cls-1{fill:#16243b;}.cls-2{fill:#eb5a32;}.cls-3{fill:#f49625;}</style></defs><rect class="cls-1" width="15.4" height="15.4" rx="2.6"/><path class="cls-2" d="M9,5.89c-.26-.17-.48-.33-.71-.45a.35.35,0,0,0-.29,0c-.6.37-1.19.75-1.85,1.18,0-.33,0-.6,0-.87a.38.38,0,0,1,.18-.22c.33-.23.67-.45,1.06-.7-.66-.33-1.17-.72-.85-1.55l1.33.91a.34.34,0,0,0,.46,0c.46-.32.94-.62,1.5-1a2.78,2.78,0,0,1-.11,1c-.16.25-.53.38-.84.59.6.41,1.18.81,1.77,1.18a.56.56,0,0,1,.29.56c0,1.21,0,2.43,0,3.71-.29-.19-.54-.35-.77-.53-.06-.05-.06-.19-.06-.29,0-.77,0-1.55,0-2.32a.7.7,0,0,0-.42-.75L6.32,8.61a.85.85,0,0,0-.48.86c0,.58,0,1.16,0,1.73a1.29,1.29,0,0,0,1.29,1.34,1.36,1.36,0,0,0,1.34-1.35c0-.79,0-1.59,0-2.39a.58.58,0,0,1,.37-.65,3.91,3.91,0,0,0,.42-.24c0,.09,0,.15,0,.21,0,1.06,0,2.11,0,3.16a2,2,0,0,1-1.39,2,2.05,2.05,0,0,1-2.3-.5A1.93,1.93,0,0,1,5,11.34c0-.9,0-1.8,0-2.7a.48.48,0,0,1,.22-.34c1-.67,2.09-1.32,3.13-2Z" transform="translate(-0.3 -0.3)"/><path class="cls-3" d="M7.8,7.68l-1.47.93a.83.83,0,0,0-.48.86c0,.58,0,1.16,0,1.73a1.29,1.29,0,0,0,1.3,1.34,1.35,1.35,0,0,0,1.33-1.35c0-.79,0-1.59,0-2.39a.6.6,0,0,1,.37-.65,3.14,3.14,0,0,0,.42-.24,1.07,1.07,0,0,1,0,.21c0,1.06,0,2.11,0,3.16a2,2,0,0,1-1.39,2,2,2,0,0,1-2.29-.5A1.9,1.9,0,0,1,5,11.34c0-.9,0-1.8,0-2.7a.51.51,0,0,1,.22-.34L6.5,7.52" transform="translate(-0.3 -0.3)"/><path class="cls-3" d="M11,9.4v.93c-.29-.19-.54-.35-.77-.53-.06-.05-.05-.19-.05-.29,0-.37,0-.75,0-1.12" transform="translate(-0.3 -0.3)"/><path class="cls-3" d="M7.58,8.88c0,.81,0,1.56,0,2.3,0,.15-.21.29-.32.44-.35-.18-.54-.37-.49-.75a6.37,6.37,0,0,0,0-1.07.56.56,0,0,1,.35-.63C7.25,9.1,7.38,9,7.58,8.88Z" transform="translate(-0.3 -0.3)"/><path class="cls-3" d="M10.11,13V11c.27.16.53.29.77.46a.38.38,0,0,1,.09.3A1.62,1.62,0,0,1,10.11,13Z" transform="translate(-0.3 -0.3)"/><path class="cls-2" d="M7.38,2.75c.24-.19.43-.37.65-.51a.27.27,0,0,1,.26,0c.23.16.43.33.68.52a6.26,6.26,0,0,1-.67.49.33.33,0,0,1-.29,0C7.81,3.09,7.62,2.93,7.38,2.75Z" transform="translate(-0.3 -0.3)"/></svg>